<mxfile host="app.diagrams.net" modified="2023-12-24T05:44:51.021Z" agent="Mozilla/5.0 (Windows NT 10.0; Win64; x64) AppleWebKit/537.36 (KHTML, like Gecko) Chrome/120.0.0.0 Safari/537.36 Edg/120.0.0.0" etag="Y7RYLIAtzvlU5VaeTLmf" version="22.1.11" type="github">
  <diagram name="第 1 页" id="WTQus1C0WWTczJbotlG_">
    <mxGraphModel dx="1667" dy="2046" grid="1" gridSize="10" guides="1" tooltips="1" connect="1" arrows="1" fold="1" page="1" pageScale="1" pageWidth="827" pageHeight="1169" math="0" shadow="0">
      <root>
        <mxCell id="0" />
        <mxCell id="1" parent="0" />
        <mxCell id="iU3JFeuQYc7rM6nNC0au-1" value="" style="endArrow=none;html=1;rounded=0;strokeWidth=4;strokeColor=#3399FF;" edge="1" parent="1">
          <mxGeometry width="50" height="50" relative="1" as="geometry">
            <mxPoint x="40" y="120" as="sourcePoint" />
            <mxPoint x="120" y="40" as="targetPoint" />
          </mxGeometry>
        </mxCell>
        <mxCell id="iU3JFeuQYc7rM6nNC0au-2" value="" style="rounded=0;whiteSpace=wrap;html=1;fillColor=none;strokeWidth=3;" vertex="1" parent="1">
          <mxGeometry x="120" y="40" width="320" height="320" as="geometry" />
        </mxCell>
        <mxCell id="iU3JFeuQYc7rM6nNC0au-3" value="125k BW&lt;br&gt;SF 12" style="text;strokeColor=none;align=center;fillColor=none;html=1;verticalAlign=middle;whiteSpace=wrap;rounded=0;" vertex="1" parent="1">
          <mxGeometry x="40" y="-20" width="60" height="30" as="geometry" />
        </mxCell>
        <mxCell id="iU3JFeuQYc7rM6nNC0au-4" value="" style="endArrow=none;html=1;rounded=0;strokeWidth=4;strokeColor=#3399FF;" edge="1" parent="1">
          <mxGeometry width="50" height="50" relative="1" as="geometry">
            <mxPoint x="520" y="120" as="sourcePoint" />
            <mxPoint x="600" y="40" as="targetPoint" />
          </mxGeometry>
        </mxCell>
        <mxCell id="iU3JFeuQYc7rM6nNC0au-5" value="" style="endArrow=none;html=1;rounded=0;strokeWidth=4;strokeColor=#3399FF;" edge="1" parent="1">
          <mxGeometry width="50" height="50" relative="1" as="geometry">
            <mxPoint x="600" y="40" as="sourcePoint" />
            <mxPoint x="840" y="40" as="targetPoint" />
          </mxGeometry>
        </mxCell>
        <mxCell id="iU3JFeuQYc7rM6nNC0au-6" value="" style="endArrow=none;html=1;rounded=0;strokeWidth=4;strokeColor=#3399FF;" edge="1" parent="1">
          <mxGeometry width="50" height="50" relative="1" as="geometry">
            <mxPoint x="920" y="120" as="sourcePoint" />
            <mxPoint x="840" y="40" as="targetPoint" />
          </mxGeometry>
        </mxCell>
        <mxCell id="iU3JFeuQYc7rM6nNC0au-7" value="" style="endArrow=none;html=1;rounded=0;strokeWidth=4;strokeColor=#3399FF;dashed=1;dashPattern=1 1;" edge="1" parent="1">
          <mxGeometry width="50" height="50" relative="1" as="geometry">
            <mxPoint x="520" y="120" as="sourcePoint" />
            <mxPoint x="920" y="120" as="targetPoint" />
          </mxGeometry>
        </mxCell>
        <mxCell id="iU3JFeuQYc7rM6nNC0au-9" value="" style="shape=curlyBracket;whiteSpace=wrap;html=1;rounded=1;labelPosition=left;verticalLabelPosition=middle;align=right;verticalAlign=middle;rotation=-90;strokeWidth=3;" vertex="1" parent="1">
          <mxGeometry x="707.5" y="-50" width="20" height="390" as="geometry" />
        </mxCell>
        <mxCell id="iU3JFeuQYc7rM6nNC0au-10" value="&lt;font style=&quot;font-size: 18px;&quot;&gt;大Bw-小BW&lt;/font&gt;" style="text;strokeColor=none;align=center;fillColor=none;html=1;verticalAlign=middle;whiteSpace=wrap;rounded=0;" vertex="1" parent="1">
          <mxGeometry x="660" y="-50" width="130" height="30" as="geometry" />
        </mxCell>
        <mxCell id="iU3JFeuQYc7rM6nNC0au-11" value="" style="shape=curlyBracket;whiteSpace=wrap;html=1;rounded=1;labelPosition=left;verticalLabelPosition=middle;align=right;verticalAlign=middle;rotation=90;strokeWidth=3;" vertex="1" parent="1">
          <mxGeometry x="717.5" y="-92.5" width="20" height="235" as="geometry" />
        </mxCell>
        <mxCell id="iU3JFeuQYc7rM6nNC0au-12" value="&lt;font style=&quot;font-size: 18px;&quot;&gt;大Bw+小BW&lt;/font&gt;" style="text;strokeColor=none;align=center;fillColor=none;html=1;verticalAlign=middle;whiteSpace=wrap;rounded=0;" vertex="1" parent="1">
          <mxGeometry x="660" y="170" width="130" height="30" as="geometry" />
        </mxCell>
        <mxCell id="iU3JFeuQYc7rM6nNC0au-13" value="&lt;font style=&quot;font-size: 18px;&quot;&gt;S梯形面积公式：0.5*（上底加下底）*高&lt;br&gt;带入此场景得：大BW*FFT的值&lt;br&gt;即梯形面积和FFT值呈线性相关。&lt;br&gt;&lt;/font&gt;" style="text;strokeColor=none;align=center;fillColor=none;html=1;verticalAlign=middle;whiteSpace=wrap;rounded=0;" vertex="1" parent="1">
          <mxGeometry x="560" y="210" width="360" height="90" as="geometry" />
        </mxCell>
      </root>
    </mxGraphModel>
  </diagram>
</mxfile>
